<?xml version="1.0" encoding="UTF-8" standalone="no"?>
<!DOCTYPE svg PUBLIC "-//W3C//DTD SVG 1.1//EN"
 "http://www.w3.org/Graphics/SVG/1.1/DTD/svg11.dtd">
<!-- Generated by graphviz version 11.0.0 (20240428.1522)
 -->
<!-- Title: Tree Pages: 1 -->
<svg width="1414pt" height="396pt"
 viewBox="0.00 0.00 1414.00 395.50" xmlns="http://www.w3.org/2000/svg" xmlns:xlink="http://www.w3.org/1999/xlink">
<g id="graph0" class="graph" transform="scale(1 1) rotate(0) translate(4 391.5)">
<title>Tree</title>
<polygon fill="white" stroke="none" points="-4,4 -4,-391.5 1410,-391.5 1410,4 -4,4"/>
<!-- 0 -->
<g id="node1" class="node">
<title>0</title>
<path fill="#f7dac5" stroke="black" d="M771,-387.5C771,-387.5 635,-387.5 635,-387.5 629,-387.5 623,-381.5 623,-375.5 623,-375.5 623,-325.5 623,-325.5 623,-319.5 629,-313.5 635,-313.5 635,-313.5 771,-313.5 771,-313.5 777,-313.5 783,-319.5 783,-325.5 783,-325.5 783,-375.5 783,-375.5 783,-381.5 777,-387.5 771,-387.5"/>
<text text-anchor="start" x="670.38" y="-370.2" font-family="Helvetica,sans-Serif" font-size="14.00">Hour ≤ 7.5</text>
<text text-anchor="start" x="631" y="-353.7" font-family="Helvetica,sans-Serif" font-size="14.00">friedman_mse = 0.188</text>
<text text-anchor="start" x="647.5" y="-337.2" font-family="Helvetica,sans-Serif" font-size="14.00">samples = 33231</text>
<text text-anchor="start" x="666.25" y="-320.7" font-family="Helvetica,sans-Serif" font-size="14.00">value = &#45;0.0</text>
</g>
<!-- 1 -->
<g id="node2" class="node">
<title>1</title>
<path fill="#f5cdb1" stroke="black" d="M588.88,-277.5C588.88,-277.5 461.12,-277.5 461.12,-277.5 455.12,-277.5 449.12,-271.5 449.12,-265.5 449.12,-265.5 449.12,-215.5 449.12,-215.5 449.12,-209.5 455.12,-203.5 461.12,-203.5 461.12,-203.5 588.88,-203.5 588.88,-203.5 594.88,-203.5 600.88,-209.5 600.88,-215.5 600.88,-215.5 600.88,-265.5 600.88,-265.5 600.88,-271.5 594.88,-277.5 588.88,-277.5"/>
<text text-anchor="start" x="492.38" y="-260.2" font-family="Helvetica,sans-Serif" font-size="14.00">Hour ≤ 2.5</text>
<text text-anchor="start" x="457.12" y="-243.7" font-family="Helvetica,sans-Serif" font-size="14.00">friedman_mse = 0.25</text>
<text text-anchor="start" x="469.5" y="-227.2" font-family="Helvetica,sans-Serif" font-size="14.00">samples = 11049</text>
<text text-anchor="start" x="482.25" y="-210.7" font-family="Helvetica,sans-Serif" font-size="14.00">value = 0.269</text>
</g>
<!-- 0&#45;&gt;1 -->
<g id="edge1" class="edge">
<title>0&#45;&gt;1</title>
<path fill="none" stroke="black" d="M643.23,-313.24C627.53,-303.71 610.46,-293.35 594.3,-283.55"/>
<polygon fill="black" stroke="black" points="596.57,-280.83 586.21,-278.64 592.94,-286.82 596.57,-280.83"/>
<text text-anchor="middle" x="590.86" y="-297.08" font-family="Helvetica,sans-Serif" font-size="14.00">True</text>
</g>
<!-- 8 -->
<g id="node9" class="node">
<title>8</title>
<path fill="#f9e0ce" stroke="black" d="M949,-277.5C949,-277.5 813,-277.5 813,-277.5 807,-277.5 801,-271.5 801,-265.5 801,-265.5 801,-215.5 801,-215.5 801,-209.5 807,-203.5 813,-203.5 813,-203.5 949,-203.5 949,-203.5 955,-203.5 961,-209.5 961,-215.5 961,-215.5 961,-265.5 961,-265.5 961,-271.5 955,-277.5 949,-277.5"/>
<text text-anchor="start" x="837.5" y="-260.2" font-family="Helvetica,sans-Serif" font-size="14.00">District ≤ 13.0</text>
<text text-anchor="start" x="809" y="-243.7" font-family="Helvetica,sans-Serif" font-size="14.00">friedman_mse = 0.103</text>
<text text-anchor="start" x="825.5" y="-227.2" font-family="Helvetica,sans-Serif" font-size="14.00">samples = 22182</text>
<text text-anchor="start" x="836" y="-210.7" font-family="Helvetica,sans-Serif" font-size="14.00">value = &#45;0.134</text>
</g>
<!-- 0&#45;&gt;8 -->
<g id="edge8" class="edge">
<title>0&#45;&gt;8</title>
<path fill="none" stroke="black" d="M762.77,-313.24C778.47,-303.71 795.54,-293.35 811.7,-283.55"/>
<polygon fill="black" stroke="black" points="813.06,-286.82 819.79,-278.64 809.43,-280.83 813.06,-286.82"/>
<text text-anchor="middle" x="815.14" y="-297.08" font-family="Helvetica,sans-Serif" font-size="14.00">False</text>
</g>
<!-- 2 -->
<g id="node3" class="node">
<title>2</title>
<path fill="#f7d9c3" stroke="black" d="M326,-167.5C326,-167.5 190,-167.5 190,-167.5 184,-167.5 178,-161.5 178,-155.5 178,-155.5 178,-105.5 178,-105.5 178,-99.5 184,-93.5 190,-93.5 190,-93.5 326,-93.5 326,-93.5 332,-93.5 338,-99.5 338,-105.5 338,-105.5 338,-155.5 338,-155.5 338,-161.5 332,-167.5 326,-167.5"/>
<text text-anchor="start" x="225.38" y="-150.2" font-family="Helvetica,sans-Serif" font-size="14.00">Hour ≤ 0.5</text>
<text text-anchor="start" x="186" y="-133.7" font-family="Helvetica,sans-Serif" font-size="14.00">friedman_mse = 0.196</text>
<text text-anchor="start" x="206.62" y="-117.2" font-family="Helvetica,sans-Serif" font-size="14.00">samples = 4180</text>
<text text-anchor="start" x="215.25" y="-100.7" font-family="Helvetica,sans-Serif" font-size="14.00">value = 0.017</text>
</g>
<!-- 1&#45;&gt;2 -->
<g id="edge2" class="edge">
<title>1&#45;&gt;2</title>
<path fill="none" stroke="black" d="M448.85,-208.7C417.69,-196.09 381.39,-181.41 348.86,-168.25"/>
<polygon fill="black" stroke="black" points="350.43,-165.11 339.85,-164.61 347.81,-171.6 350.43,-165.11"/>
</g>
<!-- 5 -->
<g id="node6" class="node">
<title>5</title>
<path fill="#f3c6a6" stroke="black" d="M588.88,-167.5C588.88,-167.5 461.12,-167.5 461.12,-167.5 455.12,-167.5 449.12,-161.5 449.12,-155.5 449.12,-155.5 449.12,-105.5 449.12,-105.5 449.12,-99.5 455.12,-93.5 461.12,-93.5 461.12,-93.5 588.88,-93.5 588.88,-93.5 594.88,-93.5 600.88,-99.5 600.88,-105.5 600.88,-105.5 600.88,-155.5 600.88,-155.5 600.88,-161.5 594.88,-167.5 588.88,-167.5"/>
<text text-anchor="start" x="481.5" y="-150.2" font-family="Helvetica,sans-Serif" font-size="14.00">District ≤ 13.0</text>
<text text-anchor="start" x="457.12" y="-133.7" font-family="Helvetica,sans-Serif" font-size="14.00">friedman_mse = 0.22</text>
<text text-anchor="start" x="473.62" y="-117.2" font-family="Helvetica,sans-Serif" font-size="14.00">samples = 6869</text>
<text text-anchor="start" x="482.25" y="-100.7" font-family="Helvetica,sans-Serif" font-size="14.00">value = 0.422</text>
</g>
<!-- 1&#45;&gt;5 -->
<g id="edge5" class="edge">
<title>1&#45;&gt;5</title>
<path fill="none" stroke="black" d="M525,-203.24C525,-195.49 525,-187.2 525,-179.1"/>
<polygon fill="black" stroke="black" points="528.5,-179.36 525,-169.36 521.5,-179.36 528.5,-179.36"/>
</g>
<!-- 3 -->
<g id="node4" class="node">
<title>3</title>
<path fill="#ffffff" stroke="black" d="M148,-57.5C148,-57.5 12,-57.5 12,-57.5 6,-57.5 0,-51.5 0,-45.5 0,-45.5 0,-12 0,-12 0,-6 6,0 12,0 12,0 148,0 148,0 154,0 160,-6 160,-12 160,-12 160,-45.5 160,-45.5 160,-51.5 154,-57.5 148,-57.5"/>
<text text-anchor="start" x="8" y="-40.2" font-family="Helvetica,sans-Serif" font-size="14.00">friedman_mse = 0.023</text>
<text text-anchor="start" x="28.62" y="-23.7" font-family="Helvetica,sans-Serif" font-size="14.00">samples = 1392</text>
<text text-anchor="start" x="35" y="-7.2" font-family="Helvetica,sans-Serif" font-size="14.00">value = &#45;0.806</text>
</g>
<!-- 2&#45;&gt;3 -->
<g id="edge3" class="edge">
<title>2&#45;&gt;3</title>
<path fill="none" stroke="black" d="M192.98,-93.06C175.71,-83.39 157.14,-72.98 140.15,-63.46"/>
<polygon fill="black" stroke="black" points="142.1,-60.54 131.67,-58.7 138.68,-66.65 142.1,-60.54"/>
</g>
<!-- 4 -->
<g id="node5" class="node">
<title>4</title>
<path fill="#f3c3a1" stroke="black" d="M326,-57.5C326,-57.5 190,-57.5 190,-57.5 184,-57.5 178,-51.5 178,-45.5 178,-45.5 178,-12 178,-12 178,-6 184,0 190,0 190,0 326,0 326,0 332,0 338,-6 338,-12 338,-12 338,-45.5 338,-45.5 338,-51.5 332,-57.5 326,-57.5"/>
<text text-anchor="start" x="186" y="-40.2" font-family="Helvetica,sans-Serif" font-size="14.00">friedman_mse = 0.238</text>
<text text-anchor="start" x="206.62" y="-23.7" font-family="Helvetica,sans-Serif" font-size="14.00">samples = 2788</text>
<text text-anchor="start" x="215.25" y="-7.2" font-family="Helvetica,sans-Serif" font-size="14.00">value = 0.492</text>
</g>
<!-- 2&#45;&gt;4 -->
<g id="edge4" class="edge">
<title>2&#45;&gt;4</title>
<path fill="none" stroke="black" d="M258,-93.21C258,-85.35 258,-77 258,-69.03"/>
<polygon fill="black" stroke="black" points="261.5,-69.24 258,-59.24 254.5,-69.24 261.5,-69.24"/>
</g>
<!-- 6 -->
<g id="node7" class="node">
<title>6</title>
<path fill="#eda572" stroke="black" d="M504,-57.5C504,-57.5 368,-57.5 368,-57.5 362,-57.5 356,-51.5 356,-45.5 356,-45.5 356,-12 356,-12 356,-6 362,0 368,0 368,0 504,0 504,0 510,0 516,-6 516,-12 516,-12 516,-45.5 516,-45.5 516,-51.5 510,-57.5 504,-57.5"/>
<text text-anchor="start" x="364" y="-40.2" font-family="Helvetica,sans-Serif" font-size="14.00">friedman_mse = 0.245</text>
<text text-anchor="start" x="384.62" y="-23.7" font-family="Helvetica,sans-Serif" font-size="14.00">samples = 3739</text>
<text text-anchor="start" x="393.25" y="-7.2" font-family="Helvetica,sans-Serif" font-size="14.00">value = 1.137</text>
</g>
<!-- 5&#45;&gt;6 -->
<g id="edge6" class="edge">
<title>5&#45;&gt;6</title>
<path fill="none" stroke="black" d="M492.62,-93.21C484.79,-84.43 476.42,-75.05 468.58,-66.27"/>
<polygon fill="black" stroke="black" points="471.24,-63.99 461.97,-58.86 466.02,-68.65 471.24,-63.99"/>
</g>
<!-- 7 -->
<g id="node8" class="node">
<title>7</title>
<path fill="#e58139" stroke="black" d="M682,-57.5C682,-57.5 546,-57.5 546,-57.5 540,-57.5 534,-51.5 534,-45.5 534,-45.5 534,-12 534,-12 534,-6 540,0 546,0 546,0 682,0 682,0 688,0 694,-6 694,-12 694,-12 694,-45.5 694,-45.5 694,-51.5 688,-57.5 682,-57.5"/>
<text text-anchor="start" x="542" y="-40.2" font-family="Helvetica,sans-Serif" font-size="14.00">friedman_mse = 0.164</text>
<text text-anchor="start" x="562.62" y="-23.7" font-family="Helvetica,sans-Serif" font-size="14.00">samples = 3130</text>
<text text-anchor="start" x="571.25" y="-7.2" font-family="Helvetica,sans-Serif" font-size="14.00">value = 1.926</text>
</g>
<!-- 5&#45;&gt;7 -->
<g id="edge7" class="edge">
<title>5&#45;&gt;7</title>
<path fill="none" stroke="black" d="M557.38,-93.21C565.21,-84.43 573.58,-75.05 581.42,-66.27"/>
<polygon fill="black" stroke="black" points="583.98,-68.65 588.03,-58.86 578.76,-63.99 583.98,-68.65"/>
</g>
<!-- 9 -->
<g id="node10" class="node">
<title>9</title>
<path fill="#f9e3d4" stroke="black" d="M944.88,-167.5C944.88,-167.5 817.12,-167.5 817.12,-167.5 811.12,-167.5 805.12,-161.5 805.12,-155.5 805.12,-155.5 805.12,-105.5 805.12,-105.5 805.12,-99.5 811.12,-93.5 817.12,-93.5 817.12,-93.5 944.88,-93.5 944.88,-93.5 950.88,-93.5 956.88,-99.5 956.88,-105.5 956.88,-105.5 956.88,-155.5 956.88,-155.5 956.88,-161.5 950.88,-167.5 944.88,-167.5"/>
<text text-anchor="start" x="848.38" y="-150.2" font-family="Helvetica,sans-Serif" font-size="14.00">Hour ≤ 9.5</text>
<text text-anchor="start" x="813.12" y="-133.7" font-family="Helvetica,sans-Serif" font-size="14.00">friedman_mse = 0.04</text>
<text text-anchor="start" x="825.5" y="-117.2" font-family="Helvetica,sans-Serif" font-size="14.00">samples = 12109</text>
<text text-anchor="start" x="836" y="-100.7" font-family="Helvetica,sans-Serif" font-size="14.00">value = &#45;0.209</text>
</g>
<!-- 8&#45;&gt;9 -->
<g id="edge9" class="edge">
<title>8&#45;&gt;9</title>
<path fill="none" stroke="black" d="M881,-203.24C881,-195.49 881,-187.2 881,-179.1"/>
<polygon fill="black" stroke="black" points="884.5,-179.36 881,-169.36 877.5,-179.36 884.5,-179.36"/>
</g>
<!-- 12 -->
<g id="node13" class="node">
<title>12</title>
<path fill="#f8dcc8" stroke="black" d="M1216,-167.5C1216,-167.5 1080,-167.5 1080,-167.5 1074,-167.5 1068,-161.5 1068,-155.5 1068,-155.5 1068,-105.5 1068,-105.5 1068,-99.5 1074,-93.5 1080,-93.5 1080,-93.5 1216,-93.5 1216,-93.5 1222,-93.5 1228,-99.5 1228,-105.5 1228,-105.5 1228,-155.5 1228,-155.5 1228,-161.5 1222,-167.5 1216,-167.5"/>
<text text-anchor="start" x="1111.25" y="-150.2" font-family="Helvetica,sans-Serif" font-size="14.00">Month ≤ 5.5</text>
<text text-anchor="start" x="1076" y="-133.7" font-family="Helvetica,sans-Serif" font-size="14.00">friedman_mse = 0.165</text>
<text text-anchor="start" x="1092.5" y="-117.2" font-family="Helvetica,sans-Serif" font-size="14.00">samples = 10073</text>
<text text-anchor="start" x="1103" y="-100.7" font-family="Helvetica,sans-Serif" font-size="14.00">value = &#45;0.043</text>
</g>
<!-- 8&#45;&gt;12 -->
<g id="edge12" class="edge">
<title>8&#45;&gt;12</title>
<path fill="none" stroke="black" d="M961.47,-206.95C991.68,-194.73 1026.22,-180.76 1057.3,-168.19"/>
<polygon fill="black" stroke="black" points="1058.33,-171.55 1066.29,-164.55 1055.71,-165.06 1058.33,-171.55"/>
</g>
<!-- 10 -->
<g id="node11" class="node">
<title>10</title>
<path fill="#fbeee4" stroke="black" d="M860,-57.5C860,-57.5 724,-57.5 724,-57.5 718,-57.5 712,-51.5 712,-45.5 712,-45.5 712,-12 712,-12 712,-6 718,0 724,0 724,0 860,0 860,0 866,0 872,-6 872,-12 872,-12 872,-45.5 872,-45.5 872,-51.5 866,-57.5 860,-57.5"/>
<text text-anchor="start" x="720" y="-40.2" font-family="Helvetica,sans-Serif" font-size="14.00">friedman_mse = 0.112</text>
<text text-anchor="start" x="740.62" y="-23.7" font-family="Helvetica,sans-Serif" font-size="14.00">samples = 1531</text>
<text text-anchor="start" x="747" y="-7.2" font-family="Helvetica,sans-Serif" font-size="14.00">value = &#45;0.434</text>
</g>
<!-- 9&#45;&gt;10 -->
<g id="edge10" class="edge">
<title>9&#45;&gt;10</title>
<path fill="none" stroke="black" d="M848.62,-93.21C840.79,-84.43 832.42,-75.05 824.58,-66.27"/>
<polygon fill="black" stroke="black" points="827.24,-63.99 817.97,-58.86 822.02,-68.65 827.24,-63.99"/>
</g>
<!-- 11 -->
<g id="node12" class="node">
<title>11</title>
<path fill="#fffefe" stroke="black" d="M1038,-57.5C1038,-57.5 902,-57.5 902,-57.5 896,-57.5 890,-51.5 890,-45.5 890,-45.5 890,-12 890,-12 890,-6 896,0 902,0 902,0 1038,0 1038,0 1044,0 1050,-6 1050,-12 1050,-12 1050,-45.5 1050,-45.5 1050,-51.5 1044,-57.5 1038,-57.5"/>
<text text-anchor="start" x="898" y="-40.2" font-family="Helvetica,sans-Serif" font-size="14.00">friedman_mse = 0.028</text>
<text text-anchor="start" x="914.5" y="-23.7" font-family="Helvetica,sans-Serif" font-size="14.00">samples = 10578</text>
<text text-anchor="start" x="925" y="-7.2" font-family="Helvetica,sans-Serif" font-size="14.00">value = &#45;0.786</text>
</g>
<!-- 9&#45;&gt;11 -->
<g id="edge11" class="edge">
<title>9&#45;&gt;11</title>
<path fill="none" stroke="black" d="M913.38,-93.21C921.21,-84.43 929.58,-75.05 937.42,-66.27"/>
<polygon fill="black" stroke="black" points="939.98,-68.65 944.03,-58.86 934.76,-63.99 939.98,-68.65"/>
</g>
<!-- 13 -->
<g id="node14" class="node">
<title>13</title>
<path fill="#fdf7f2" stroke="black" d="M1216,-57.5C1216,-57.5 1080,-57.5 1080,-57.5 1074,-57.5 1068,-51.5 1068,-45.5 1068,-45.5 1068,-12 1068,-12 1068,-6 1074,0 1080,0 1080,0 1216,0 1216,0 1222,0 1228,-6 1228,-12 1228,-12 1228,-45.5 1228,-45.5 1228,-51.5 1222,-57.5 1216,-57.5"/>
<text text-anchor="start" x="1076" y="-40.2" font-family="Helvetica,sans-Serif" font-size="14.00">friedman_mse = 0.069</text>
<text text-anchor="start" x="1096.62" y="-23.7" font-family="Helvetica,sans-Serif" font-size="14.00">samples = 4181</text>
<text text-anchor="start" x="1103" y="-7.2" font-family="Helvetica,sans-Serif" font-size="14.00">value = &#45;0.624</text>
</g>
<!-- 12&#45;&gt;13 -->
<g id="edge13" class="edge">
<title>12&#45;&gt;13</title>
<path fill="none" stroke="black" d="M1148,-93.21C1148,-85.35 1148,-77 1148,-69.03"/>
<polygon fill="black" stroke="black" points="1151.5,-69.24 1148,-59.24 1144.5,-69.24 1151.5,-69.24"/>
</g>
<!-- 14 -->
<g id="node15" class="node">
<title>14</title>
<path fill="#f6d2b8" stroke="black" d="M1394,-57.5C1394,-57.5 1258,-57.5 1258,-57.5 1252,-57.5 1246,-51.5 1246,-45.5 1246,-45.5 1246,-12 1246,-12 1246,-6 1252,0 1258,0 1258,0 1394,0 1394,0 1400,0 1406,-6 1406,-12 1406,-12 1406,-45.5 1406,-45.5 1406,-51.5 1400,-57.5 1394,-57.5"/>
<text text-anchor="start" x="1254" y="-40.2" font-family="Helvetica,sans-Serif" font-size="14.00">friedman_mse = 0.211</text>
<text text-anchor="start" x="1274.62" y="-23.7" font-family="Helvetica,sans-Serif" font-size="14.00">samples = 5892</text>
<text text-anchor="start" x="1287.38" y="-7.2" font-family="Helvetica,sans-Serif" font-size="14.00">value = 0.18</text>
</g>
<!-- 12&#45;&gt;14 -->
<g id="edge14" class="edge">
<title>12&#45;&gt;14</title>
<path fill="none" stroke="black" d="M1213.02,-93.06C1230.29,-83.39 1248.86,-72.98 1265.85,-63.46"/>
<polygon fill="black" stroke="black" points="1267.32,-66.65 1274.33,-58.7 1263.9,-60.54 1267.32,-66.65"/>
</g>
</g>
</svg>
